<svg height="512pt" viewBox="0 -24 512 512" width="512pt" xmlns="http://www.w3.org/2000/svg"><path d="m480 464h-448c-17.671875 0-32-14.328125-32-32v-288c0-17.671875 14.328125-32 32-32h115.503906l16-64h184.992188l16 64h115.503906c17.671875 0 32 14.328125 32 32v288c0 17.671875-14.328125 32-32 32zm0 0" fill="#708299"/><path d="m352 304c0 53.019531-42.980469 96-96 96s-96-42.980469-96-96 42.980469-96 96-96 96 42.980469 96 96zm0 0" fill="#57565c"/><path d="m320 304c0 35.347656-28.652344 64-64 64s-64-28.652344-64-64 28.652344-64 64-64 64 28.652344 64 64zm0 0" fill="#92c5ff"/><path d="m384 176h64c8.835938 0 16 7.164062 16 16s-7.164062 16-16 16h-64c-8.835938 0-16-7.164062-16-16s7.164062-16 16-16zm0 0" fill="#f8d539"/><path d="m256 336c-29.09375-.109375-54.453125-19.828125-61.726562-48-1.441407 5.214844-2.207032 10.589844-2.273438 16 0 35.347656 28.652344 64 64 64s64-28.652344 64-64c-.066406-5.410156-.832031-10.785156-2.273438-16-7.273437 28.171875-32.632812 47.890625-61.726562 48zm0 0" fill="#78bcff"/><path d="m256 256h32v32h-32zm0 0" fill="#fff"/><path d="m160 224h-96v-64h-64v-96h64v-64h96v64h64v96h-64zm0 0" fill="#67ce91"/><path d="m480 416h-448c-17.671875 0-32-14.328125-32-32v48c0 17.671875 14.328125 32 32 32h448c17.671875 0 32-14.328125 32-32v-48c0 17.671875-14.328125 32-32 32zm0 0" fill="#68788e"/></svg>