<svg id="Capa_1" enable-background="new 0 0 510 510" height="512" viewBox="0 0 510 510" width="512" xmlns="http://www.w3.org/2000/svg" xmlns:xlink="http://www.w3.org/1999/xlink"><linearGradient id="lg1"><stop offset="0" stop-color="#fcb37e"/><stop offset=".156" stop-color="#f3ac78"/><stop offset=".4123" stop-color="#da9a69"/><stop offset=".735" stop-color="#b27e50"/><stop offset="1" stop-color="#8c6239"/></linearGradient><linearGradient id="SVGID_1_" gradientUnits="userSpaceOnUse" x1="30.689" x2="188.245" xlink:href="#lg1" y1="185.782" y2="268.384"/><linearGradient id="SVGID_2_" gradientUnits="userSpaceOnUse" x1="349.069" x2="501.271" xlink:href="#lg1" y1="202.289" y2="287.186"/><linearGradient id="SVGID_3_" gradientUnits="userSpaceOnUse" x1="174.652" x2="411.883" xlink:href="#lg1" y1="169.143" y2="401.141"/><linearGradient id="lg2"><stop offset="0" stop-color="#f8f6fb"/><stop offset="1" stop-color="#efdcfb"/></linearGradient><linearGradient id="SVGID_4_" gradientUnits="userSpaceOnUse" x1="249.608" x2="307.735" xlink:href="#lg2" y1="95.854" y2="130.272"/><linearGradient id="SVGID_5_" gradientUnits="userSpaceOnUse" x1="255.709" x2="255.709" xlink:href="#lg2" y1="416.326" y2="459.383"/><linearGradient id="SVGID_6_" gradientUnits="userSpaceOnUse" x1="255.709" x2="255.709" y1="406.295" y2="432.393"><stop offset="0" stop-color="#ff819c"/><stop offset=".2594" stop-color="#ff7e9a"/><stop offset=".4757" stop-color="#fe7396"/><stop offset=".6765" stop-color="#fc628e"/><stop offset=".8668" stop-color="#fa4a83"/><stop offset="1" stop-color="#f83479"/></linearGradient><linearGradient id="SVGID_7_" gradientUnits="userSpaceOnUse" x1="160.204" x2="202.652" xlink:href="#lg2" y1="340.46" y2="446.007"/><linearGradient id="SVGID_8_" gradientUnits="userSpaceOnUse" x1="328.035" x2="373.925" xlink:href="#lg2" y1="330.223" y2="434.623"/><linearGradient id="SVGID_9_" gradientUnits="userSpaceOnUse" x1="355.237" x2="258.294" y1="394.409" y2="179.873"><stop offset="0" stop-color="#efdcfb" stop-opacity="0"/><stop offset=".4856" stop-color="#baaad6" stop-opacity=".486"/><stop offset="1" stop-color="#8679b2"/></linearGradient><radialGradient id="SVGID_10_" cx="242.876" cy="284.851" gradientUnits="userSpaceOnUse" r="54.59"><stop offset="0" stop-color="#8a7889"/><stop offset=".3639" stop-color="#877586"/><stop offset=".6755" stop-color="#7f6a7e"/><stop offset=".967" stop-color="#705970"/><stop offset="1" stop-color="#6e566e"/></radialGradient><linearGradient id="lg3"><stop offset="0" stop-color="#8a7889"/><stop offset="1" stop-color="#6e566e"/></linearGradient><linearGradient id="SVGID_11_" gradientUnits="userSpaceOnUse" x1="162.317" x2="193.491" xlink:href="#lg3" y1="236.244" y2="267.418"/><linearGradient id="lg4"><stop offset="0" stop-color="#6e566e" stop-opacity="0"/><stop offset=".0471" stop-color="#6e566e" stop-opacity=".047"/><stop offset="1" stop-color="#6e566e"/></linearGradient><linearGradient id="SVGID_12_" gradientUnits="userSpaceOnUse" x1="172.159" x2="205.244" xlink:href="#lg4" y1="254.475" y2="192.941"/><linearGradient id="SVGID_13_" gradientUnits="userSpaceOnUse" x1="331.089" x2="362.263" xlink:href="#lg3" y1="236.244" y2="267.418"/><linearGradient id="SVGID_14_" gradientUnits="userSpaceOnUse" x1="340.93" x2="374.016" xlink:href="#lg4" y1="254.475" y2="192.941"/><g><path d="m121.788 370.169-51.561-.496c-48.609-.468-80.122-43.174-67.395-91.337l32.133-121.604c11.272-42.657 52.23-74.506 95.282-74.091l33.717.324z" fill="url(#SVGID_1_)"/><path d="m386.863 372.719 51.561.496c48.609.468 80.937-41.625 69.14-90.023l-29.787-122.2c-10.449-42.866-50.787-75.497-93.839-75.911l-33.717-.324z" fill="url(#SVGID_2_)"/><path d="m308.877 416.476h-106.336c-60.885 0-110.242-49.357-110.242-110.242v-93.272c0-45.555 18.641-86.757 48.712-116.392 29.502-29.075 70.005-36.018 114.699-36.018 43.963 0 83.87 6.361 113.242 34.6 30.924 29.732 50.168 71.524 50.168 117.81v93.272c-.001 60.885-49.358 110.242-110.243 110.242z" fill="url(#SVGID_3_)"/><path d="m371.26 97.414c2.099 2.1 4.142 4.256 6.115 6.459-.837-.929-1.686-1.847-2.547-2.765-19.469-20.719-46.762-32.307-75.191-32.307-12.431 0-22.509 10.078-22.509 22.509v51.409c0 11.829-9.59 21.419-21.419 21.419-11.829 0-21.419-9.59-21.419-21.419v-51.409c0-12.431-10.078-22.509-22.509-22.509-28.429 0-55.722 11.587-75.191 32.307-.86.918-1.709 1.836-2.547 2.765 25.412-28.337 60.598-47.737 100.247-52.934 7.01-.918 14.157-1.388 21.419-1.388s14.409.47 21.419 1.388c36.563 4.784 69.317 21.66 94.132 46.475z" fill="url(#SVGID_4_)"/><circle cx="255.709" cy="409.397" fill="url(#SVGID_5_)" r="51.053"/><circle cx="255.709" cy="409.397" fill="url(#SVGID_6_)" r="30.944"/><g><path d="m178.273 454.991h-31.393c-42.766 0-77.436-34.669-77.436-77.436 0-42.766 34.669-77.436 77.436-77.436h108.829v77.436c0 42.767-34.669 77.436-77.436 77.436z" fill="url(#SVGID_7_)"/><path d="m333.144 454.991h31.393c42.766 0 77.436-34.669 77.436-77.436 0-42.766-34.669-77.436-77.436-77.436h-108.828v77.436c0 42.767 34.669 77.436 77.435 77.436z" fill="url(#SVGID_8_)"/></g><path d="m441.977 377.561c0 17.335-5.713 33.362-15.339 46.269-14.123 18.907-36.678 31.159-62.101 31.159h-5.277l-141.181-141.181c-3.74-3.74-5.312-8.822-4.692-13.687h151.15c21.385 0 40.75 8.662 54.758 22.681 14.008 14.02 22.682 33.374 22.682 54.759z" fill="url(#SVGID_9_)"/><path d="m293.34 290.528c-20.783-20.783-54.48-20.783-75.263 0-6.43 6.43-6.43 16.854 0 23.284l13.873 13.873c13.122 13.122 34.396 13.122 47.517 0l13.873-13.873c6.43-6.43 6.43-16.854 0-23.284z" fill="url(#SVGID_10_)"/><g><g><path d="m195.392 245.25c0 13.293-10.776 24.07-24.07 24.07-13.293 0-24.069-10.776-24.069-24.07s10.776-24.07 24.069-24.07c13.294 0 24.07 10.776 24.07 24.07z" fill="url(#SVGID_11_)"/><path d="m182.09 223.718c1.623 3.24 2.539 6.896 2.539 10.767 0 13.294-10.776 24.07-24.069 24.07-3.871 0-7.527-.915-10.767-2.538 3.952 7.887 12.108 13.302 21.531 13.302 13.293 0 24.07-10.776 24.07-24.07-.002-9.422-5.417-17.579-13.304-21.531z" fill="url(#SVGID_12_)"/></g><g><path d="m364.164 245.25c0 13.293-10.776 24.07-24.07 24.07-13.293 0-24.069-10.776-24.069-24.07s10.776-24.07 24.069-24.07c13.294 0 24.07 10.776 24.07 24.07z" fill="url(#SVGID_13_)"/><path d="m350.861 223.718c1.623 3.24 2.539 6.896 2.539 10.767 0 13.294-10.776 24.07-24.069 24.07-3.871 0-7.527-.915-10.767-2.538 3.952 7.887 12.108 13.302 21.531 13.302 13.293 0 24.07-10.776 24.07-24.07-.001-9.422-5.417-17.579-13.304-21.531z" fill="url(#SVGID_14_)"/></g></g></g></svg>