<svg id="Layer_1" enable-background="new 0 0 511.662 511.662" height="512" viewBox="0 0 511.662 511.662" width="512" xmlns="http://www.w3.org/2000/svg"><g><g><g><path d="m388.837 474.403c73.648-44.913 122.821-125.999 122.821-218.573 0-141.291-114.539-255.83-255.83-255.83-62.029 0-118.899 22.078-163.188 58.801v99.327c1.185 5.433 1.16 11.156 0 16.637 0 159.622 125.218 291.185 284.645 299.073 7.37.365 11.552.565 11.552.565z" fill="#56d8b6"/></g></g><g><g><path d="m370.414 484.594v.012c.536-.269 1.069-.539 1.6-.81 22.544-11.516 13.666-45.572-11.634-44.694-6.836.237-13.681.201-20.52-.108-30.752-1.392-29.496-47.411 1.287-47.411h76.096 20.735c22.904 0 43.776-13.485 52.85-34.515.105-.244.21-.488.315-.733 9.209-21.528 4.123-46.523-12.435-63.08l-115.63-115.63c-6.383-6.383-16.731-6.383-23.114 0l-74.987 74.987-31.455-28.708c-6.32-5.768-15.999-5.754-22.302.032-45.506 41.776-118.585 7.055-115.199-54.626.95-17.309 3.654-34.542 8.114-51.413 8.282-31.332 36.832-53.022 69.239-53.022 5.916 0 10.711-4.796 10.711-10.711 0-5.916-4.796-10.711-10.711-10.711h-27.508c-3.658 0-5.832-4.126-3.728-7.118.053-.075.106-.15.159-.225 2.726-3.867-1.632-8.814-5.815-6.604-8.031 4.244-15.808 8.902-23.304 13.947h-.026c-9.678 6.515-18.877 13.682-27.555 21.423h.009c-4.888 4.36-9.614 8.899-14.155 13.618v-.003c-7.672 7.974-14.829 16.444-21.423 25.358v.009c-30.507 41.239-48.283 91.084-49.895 144.015-.019.636-.044 1.271-.059 1.909-1.084 46.846 10.445 93.701 35.182 135.696 9.82 16.671 21.842 32.77 36.196 47.69 27.189 28.26 61.706 51.122 101.406 64.726 63.162 21.646 134.851 18.175 197.556-13.3z" fill="#00babd"/></g><g><g><path d="m398.502 43.453h-17.377c-5.916 0-10.711 4.796-10.711 10.711 0 5.916 4.796 10.711 10.711 10.711h44.932c-8.677-7.74-17.877-14.907-27.555-21.422z" fill="#00babd"/></g><g><path d="m483.049 138.185v22.947c0 9.046 7.333 16.379 16.379 16.379-4.383-13.643-9.875-26.788-16.379-39.326z" fill="#00babd"/></g></g></g><g><path d="m494.257 340.676-160.368-160.368c-10.576-10.576-28.679-3.558-29.363 11.383l-6.816 148.985z" fill="#ffd508"/></g><g><path d="m496.457 342.876-4.254-4.254h-92.894c-82.759 0-124.206-100.06-65.686-158.58l-27.314-27.314-185.894 185.894-39.62 39.62h54.629 345.095c6.168-11.299 11.505-23.115 15.938-35.366z" fill="#fcb54c"/></g><g><path d="m167.994 355.535h179.157l-149.527-136.471v-.001.001l-9.64-8.799-28.921 47.707z" fill="#ffd508"/></g><g><path d="m31.137 378.242h340.893l-26.101-23.822h-96.601c-71.801 0-106.156-88.222-53.263-136.779l-18.92-17.268-160.227 147.093c4.075 10.615 8.825 20.896 14.219 30.776z" fill="#fcb54c"/></g><g><g><g><g><path d="m456.673 28.609v19.514c0 .642-.017 1.278-.049 1.909h5.001v112.635h21.423v-134.058z" fill="#475770"/></g></g><g><g><path d="m28.607 28.609v26.572h21.423v-5.149h112.635v-21.423z" fill="#475770"/></g></g><g><g><path d="m53.691 461.628h-3.661v-112.635h-21.423v134.058h25.084z" fill="#475770"/></g></g><g><g><path d="m461.626 454.979v6.649h-112.635v21.423h134.058v-28.072z" fill="#475770"/></g></g></g><g><g><g><path d="m461.626 50.032h-112.635v-21.423h134.058z" fill="#323b49"/></g></g><g><g><path d="m50.03 162.667h-21.423v-134.058l21.423 21.423z" fill="#323b49"/></g></g><g><g><path d="m162.665 483.051h-134.058l21.423-21.423h112.635z" fill="#323b49"/></g></g><g><g><path d="m483.049 483.051-21.423-21.423v-112.635h21.423z" fill="#323b49"/></g></g></g></g><g><g><circle cx="214.762" cy="125.594" fill="#00babd" r="48.759"/></g></g><g><g><circle cx="197.632" cy="118.462" fill="#fff" r="48.759"/></g></g></g></svg>