<?xml version="1.0" encoding="iso-8859-1"?>
<!-- Generator: Adobe Illustrator 19.0.0, SVG Export Plug-In . SVG Version: 6.00 Build 0)  -->
<svg version="1.1" id="Capa_1" xmlns="http://www.w3.org/2000/svg" xmlns:xlink="http://www.w3.org/1999/xlink" x="0px" y="0px"
	 viewBox="0 0 512 512" style="enable-background:new 0 0 512 512;" xml:space="preserve">
<path style="fill:#415A6B;" d="M315.733,251.733h-51.2c0-50.133-40.533-89.6-89.6-89.6s-89.6,40.533-89.6,89.6H33.067
	c0-77.867,62.933-140.8,140.8-140.8C252.8,110.933,315.733,173.867,315.733,251.733z"/>
<path style="fill:#8AD7F8;" d="M348.8,0v51.2h42.667L345.6,98.133c-22.4-16-50.133-24.533-80-24.533
	c-77.867,0-140.8,62.933-140.8,140.8s62.933,140.8,140.8,140.8s140.8-62.933,140.8-140.8c0-29.867-9.6-57.6-24.533-80l45.867-45.867
	V131.2h51.2V0H348.8z M264.533,304c-49.067,0-89.6-40.533-89.6-89.6s40.533-89.6,89.6-89.6c50.133,0,89.6,40.533,89.6,89.6
	C355.2,263.467,314.667,304,264.533,304z"/>
<path style="fill:#415A6B;" d="M200.533,391.467v38.4H233.6V480h-33.067v32h-51.2v-32h-32v-51.2h32v-38.4
	c-66.133-11.733-115.2-69.333-115.2-138.667h51.2c0,49.067,40.533,89.6,89.6,89.6c50.133,0,89.6-40.533,89.6-89.6h51.2
	C315.733,321.067,265.6,378.667,200.533,391.467z"/>
<g>
</g>
<g>
</g>
<g>
</g>
<g>
</g>
<g>
</g>
<g>
</g>
<g>
</g>
<g>
</g>
<g>
</g>
<g>
</g>
<g>
</g>
<g>
</g>
<g>
</g>
<g>
</g>
<g>
</g>
</svg>
